<svg width="238" height="21" viewBox="0 0 238 21" fill="none" xmlns="http://www.w3.org/2000/svg">
<g clip-path="url(#clip0_124_60417)">
<path fill-rule="evenodd" clip-rule="evenodd" d="M39.6811 6.26001C39.7311 4.09001 43.9911 3.82001 47.7611 6.66001L49.8211 3.02001C43.4211 -1.41999 35.3711 0.260006 35.1611 5.96001C34.9874 10.4199 39.4813 11.6202 42.699 12.4797C44.4811 12.9557 45.8718 13.3272 45.8611 14.09C45.8611 16.69 40.6711 15.94 36.9011 13.47L35.1611 17.91C44.0711 22 50.4111 19.84 50.4111 13.82C50.4111 10.2182 46.5521 9.18302 43.4626 8.35429C41.3884 7.79791 39.6611 7.33456 39.6811 6.25001V6.26001ZM59.8109 15.2299C61.8209 15.2299 63.0209 13.7599 63.0209 12.0199V0.939941H67.3809V12.0199C67.3809 16.2999 64.2009 19.6999 59.8109 19.6999C55.4209 19.6999 52.2109 16.2999 52.2109 12.0199V0.939941H56.6009V12.0199C56.6009 13.7599 57.8009 15.2299 59.8109 15.2299ZM78.7611 0.939941H70.1211V19.3999H74.6711V14.3999H78.7611C83.4211 14.3999 85.7211 11.2399 85.7211 7.67994C85.7211 4.33994 83.4211 0.939941 78.7611 0.939941ZM78.4911 10.4899H74.6611V4.83994H78.4911C80.0211 4.83994 81.3011 6.01994 81.3011 7.67994C81.3011 9.22994 80.0211 10.4899 78.4911 10.4899ZM87.3906 19.3999H100.771V15.5799H91.8806V11.9099H99.4606V8.02994H91.8806V4.76994H100.771V0.939941H87.3906V19.3999ZM233.351 13.9698V8.93979V8.92979H237.631V16.3998C235.821 19.0498 232.071 20.0398 229.421 20.0398C224.121 20.0398 219.791 15.9198 219.791 10.4098C219.791 4.89979 224.281 0.779785 229.421 0.779785C232.121 0.779785 234.531 1.84979 236.271 3.63979L233.221 6.65978C232.281 5.69978 230.951 5.07978 229.421 5.07978C226.581 5.07978 224.091 7.37979 224.091 10.4098C224.091 13.4398 226.581 15.7398 229.421 15.7398C230.811 15.7398 232.391 15.1498 233.351 13.9698ZM163.851 0.509766C158.471 0.509766 154.161 4.83977 154.161 10.1698C154.161 15.4998 158.471 19.8598 163.851 19.8598C169.231 19.8598 173.511 15.5298 173.511 10.1698C173.511 4.80977 169.181 0.509766 163.851 0.509766ZM163.821 15.3598C160.981 15.3598 158.631 13.0298 158.631 10.1698C158.631 7.30977 160.981 4.97977 163.821 4.97977C166.661 5.00977 168.981 7.32977 169.011 10.1698C169.011 13.0298 166.681 15.3598 163.821 15.3598ZM175.381 0.939941H182.661C187.611 0.939941 191.571 3.84994 191.571 10.1699C191.571 15.5999 187.611 19.3999 182.661 19.3999H175.381V0.939941ZM179.881 15.1199H182.211C184.731 15.1199 187.031 13.4099 187.031 10.1699C187.031 6.74994 184.731 5.21994 182.211 5.21994H179.881V15.1199ZM197.941 0.939941H193.441V19.3999H197.941V0.939941ZM111.181 0.939941C115.841 0.939941 118.141 4.33994 118.141 7.67994H118.151C118.151 10.2499 116.891 12.6299 114.481 13.6999L118.471 19.3999H113.251L109.741 14.3699L107.301 14.3999V19.3999H102.801V0.939941H111.181ZM107.301 10.4899H110.891C112.451 10.4899 113.731 9.22994 113.731 7.67994C113.731 6.01994 112.441 4.83994 110.891 4.83994H107.301V10.4899ZM213.551 11.1099L200.701 0.939941V19.3999H205.201V10.3299L218.041 20.4999V0.939941H213.551V11.1099ZM151.061 6.64004C150.201 5.68004 148.921 4.82004 147.101 4.82004C143.991 4.82004 141.771 7.25004 141.771 10.17C141.771 13.09 144.131 15.55 147.101 15.55C148.791 15.55 150.181 14.86 151.061 13.76L154.111 16.81C152.401 18.71 149.991 19.86 147.101 19.86C141.611 19.86 137.491 15.38 137.491 10.17C137.491 4.96004 141.611 0.540039 147.101 0.540039C150.101 0.540039 152.401 1.77004 154.111 3.59004L151.061 6.64004Z" fill="black"/>
<path d="M131.609 0.958558L117.191 15.3765L121.455 19.6403L135.873 5.22241L131.609 0.958558Z" fill="#0047FF"/>
<path d="M9.69076 1.06607L0.371094 10.3857L4.63495 14.6496L13.9546 5.32993L9.69076 1.06607Z" fill="black"/>
<path d="M4.63495 6.14826L0.371094 10.4121L9.7049 19.7459L13.9688 15.4821L4.63495 6.14826Z" fill="black"/>
<path d="M24.9137 6.12489L15.6152 15.4233L19.8791 19.6872L29.1775 10.3887L24.9137 6.12489Z" fill="black"/>
<path d="M19.8869 1.06281L15.623 5.32666L24.9356 14.6393L29.1995 10.3754L19.8869 1.06281Z" fill="black"/>
<path d="M19.873 1.06159L5.45508 15.4795L9.71893 19.7433L24.1368 5.32544L19.873 1.06159Z" fill="#0047FF"/>
</g>
<defs>
<clipPath id="clip0_124_60417">
<rect width="238" height="20" fill="white" transform="translate(0 0.5)"/>
</clipPath>
</defs>
</svg>
